<svg id="Layer_1" data-name="Layer 1" xmlns="http://www.w3.org/2000/svg" viewBox="0 0 50 50"><defs><style>.cls-1{fill:none;stroke-linejoin:round;stroke-width:1.68px;}.cls-1,.cls-2{stroke:#000;stroke-linecap:round;}.cls-2{stroke-miterlimit:10;stroke-width:2px;}</style></defs><path d="M25,5A20,20,0,1,0,45,25,20,20,0,0,0,25,5Zm0,38.4A18.4,18.4,0,1,1,43.4,25,18.4,18.4,0,0,1,25,43.4Z"/><polygon class="cls-1" points="15.85 34.24 21.79 21.84 34.15 15.76 28.36 28.12 15.85 34.24"/><line class="cls-1" x1="28.36" y1="28.12" x2="21.79" y2="21.84"/><line class="cls-2" x1="6.6" y1="25" x2="9.83" y2="25"/><line class="cls-2" x1="40.17" y1="25" x2="43.4" y2="25"/><line class="cls-2" x1="25" y1="40.17" x2="25" y2="43.4"/><line class="cls-2" x1="25" y1="6.6" x2="25" y2="9.83"/></svg>