<?xml version="1.0" encoding="utf-8"?>
<!-- Generator: Adobe Illustrator 26.0.0, SVG Export Plug-In . SVG Version: 6.00 Build 0)  -->
<svg version="1.1" id="Capa_1" xmlns="http://www.w3.org/2000/svg" xmlns:xlink="http://www.w3.org/1999/xlink" x="0px" y="0px"
	 viewBox="0 0 50 50" style="enable-background:new 0 0 50 50;" xml:space="preserve">
<style type="text/css">
	.st0{fill:#FFFFFF;stroke:#1D1D1B;stroke-width:1.5;stroke-miterlimit:10;}
</style>
<g>
	<path class="st0" d="M7.9,22.8c-0.8,5.4,0.9,10.4,4.2,14c0.1,0.2,0.2,0.4,0.2,0.6l-0.9,7.9c0,0.2,0.2,0.4,0.4,0.3l7.5-3.7
		c0.2-0.1,0.4-0.1,0.5,0c2.6,0.8,5.6,1.1,8.6,0.5c7.4-1.5,13.1-7.7,13.8-15.2"/>
	<g>
		<path class="st0" d="M10.5,23.5V17c0-1.9,1.5-3.4,3.4-3.4h11.5V17c0,0.2,0.3,0.3,0.4,0.2l3.7-3.6H36c1.9,0,3.4,1.5,3.4,3.4v6.5
			l2.9,2.4V10.3c0-3.2-2.6-5.9-5.9-5.9H19.7c-2.1,0-3.7,1.7-3.7,3.7l0,0h-2.8c-3,0-5.4,2.4-5.4,5.4V26L10.5,23.5z"/>
		<g>
			<path class="st0" d="M25,27.1c0.6,0,1.2,0.2,1.7,0.7L29,30l2.4,2.4c0.7,0.7,1.5,1.2,2.5,1.2c0.6,0,1.2-0.2,1.7-0.5l0,0l4.8-3
				c1.3-0.9,1.9-1.8,1.9-4.3c0-2.1-0.6-3.4-1.7-4.5c-1.1-1-2.6-1.8-4.2-1.8c-0.9,0-1.7,0.1-2.5,0.4l-5.1,2c-1.1,0.4-2.4,0.8-3.8,0.8
				s-2.7-0.4-3.8-0.8l-5.1-2c-0.7-0.3-1.6-0.4-2.5-0.4c-1.7,0-3.2,0.8-4.2,1.8c-1.1,1.1-1.7,2.4-1.7,4.5c0,2.5,0.6,3.4,1.9,4.3
				l4.8,3l0,0c0.5,0.3,1.1,0.5,1.7,0.5c1,0,1.8-0.5,2.5-1.2L21,30l2.3-2.2C23.8,27.4,24.4,27.1,25,27.1"/>
			<path class="st0" d="M17.9,23.8h-3.5c-1.5,0-2.7,1.2-2.7,2.7s1.2,2.7,2.7,2.7h3.5c1.5,0,2.7-1.2,2.7-2.7
				C20.5,25,19.3,23.8,17.9,23.8z"/>
			<path class="st0" d="M36,23.8h-3.5c-1.5,0-2.7,1.2-2.7,2.7s1.2,2.7,2.7,2.7H36c1.5,0,2.7-1.2,2.7-2.7C38.6,25,37.5,23.8,36,23.8z
				"/>
		</g>
	</g>
</g>
</svg>
