<?xml version="1.0" encoding="utf-8"?>
<!-- Generator: Adobe Illustrator 26.0.0, SVG Export Plug-In . SVG Version: 6.00 Build 0)  -->
<svg version="1.1" id="Layer_1" xmlns="http://www.w3.org/2000/svg" xmlns:xlink="http://www.w3.org/1999/xlink" x="0px" y="0px"
	 viewBox="0 0 50 50" style="enable-background:new 0 0 50 50;" xml:space="preserve">
<style type="text/css">
	.st0{fill:none;stroke:#000000;stroke-width:1.8617;stroke-miterlimit:10;}
	.st1{fill:none;stroke:#000000;stroke-width:1.4916;stroke-miterlimit:10;}
	.st2{fill:none;}
	.st3{fill:none;stroke:#000000;stroke-width:1.6768;stroke-linecap:round;stroke-linejoin:round;stroke-miterlimit:10;}
	.st4{stroke:#000000;stroke-width:2;stroke-linecap:round;stroke-miterlimit:10;}
</style>
<g>
	<g>
		<path d="M-34.2,5c-11,0-20,9-20,20s9,20,20,20h0.2c8,0,10.7-3.7,11.4-4.8c0.7-1.3,0.9-2.6,0.3-3.5c-0.3-0.5-0.8-0.9-1.4-1.1
			l0.3-0.3c1.1-1.1,1.1-2.9,0-4c-0.1-0.1-0.2-0.2-0.3-0.2l-3.4-2.6c-1-0.8-2.5-0.8-3.5,0l-0.7,0.6c-0.5,0.4-1.1,0.3-1.6-0.1l-6-6
			c-0.4-0.4-0.5-1.1-0.1-1.6l0.6-0.7c0.8-1,0.8-2.5,0-3.5l-2.6-3.4c-0.5-0.6-1.3-1-2.1-1.1c-0.8,0-1.6,0.2-2.2,0.8l-2.1,2.1
			c-1.2,1.2-3.1,5.2,6.8,15.1c6.4,6.4,10.3,7.7,12.5,7.7c1.4,0,2.2-0.5,2.6-0.9L-25,37c0.1,0.1,0.3,0.2,0.6,0.2
			c0.4,0,0.6,0.1,0.8,0.3c0.2,0.3,0.2,1-0.3,1.9c-1.1,1.9-4.4,4-10.2,4c-10.2-0.1-18.4-8.3-18.4-18.4s8.2-18.3,18.3-18.3
			s18.3,8.2,18.3,18.3c0,3.4-0.9,6.7-2.7,9.5c-0.3,0.4-0.2,0.9,0.2,1.2s0.9,0.2,1.2-0.2c0,0,0,0,0-0.1c2-3.1,3-6.7,3-10.4
			C-14.2,14-23.2,5-34.2,5z M-24.5,34L-24.5,34l-2.2,2.2c-0.3,0.3-0.8,0.4-1.4,0.4c-1.5,0-5-0.9-11.3-7.2
			c-9.5-9.5-7.1-12.4-6.8-12.7l2.1-2.1c0.2-0.2,0.5-0.3,0.8-0.3h0.1c0.3,0,0.7,0.2,0.9,0.5l2.6,3.4c0.3,0.4,0.3,1,0,1.5l-0.6,0.7
			c-0.9,1-0.8,2.6,0.3,3.6l6,6c1,1,2.6,1.1,3.8,0.2l0.7-0.6c0.4-0.3,1-0.3,1.5,0l3.4,2.6C-24.2,32.7-24.1,33.4-24.5,34z"/>
	</g>
</g>
<path d="M25,120.5c-11,0-20,9-20,20c0,11,9,20,20,20s20-9,20-20C45,129.4,36,120.5,25,120.5z M25,158.9c-10.2,0-18.4-8.2-18.4-18.4
	s8.2-18.4,18.4-18.4s18.4,8.2,18.4,18.4S35.2,158.9,25,158.9z"/>
<g>
	<g>
		<path d="M36.8,93l0.3-0.3c1.1-1.1,1.1-2.9,0-4c-0.1-0.1-0.2-0.2-0.3-0.2l-3.4-2.6c-1-0.8-2.5-0.8-3.5,0l-0.7,0.6
			c-0.5,0.4-1.1,0.3-1.6-0.1l-6-6c-0.4-0.4-0.5-1.1-0.1-1.6l0.6-0.7c0.8-1,0.8-2.5,0-3.5l-2.6-3.4c-0.5-0.6-1.3-1-2.1-1.1
			c-0.8,0-1.6,0.2-2.2,0.8L13.1,73c-1.2,1.2-3.1,5.2,6.8,15.1c6.4,6.4,10.3,7.7,12.5,7.7c1.4,0,2.2-0.5,2.6-0.9l0.5-0.5 M36,91.4
			L36,91.4l-2.2,2.2C33.5,93.9,33,94,32.4,94c-1.5,0-5-0.9-11.3-7.2c-9.5-9.5-7.1-12.4-6.8-12.7l2.1-2.1c0.2-0.2,0.5-0.3,0.8-0.3
			h0.1c0.3,0,0.7,0.2,0.9,0.5l2.6,3.4c0.3,0.4,0.3,1,0,1.5l-0.6,0.7c-0.9,1-0.8,2.6,0.3,3.6l6,6c1,1,2.6,1.1,3.8,0.2L31,87
			c0.4-0.3,1-0.3,1.5,0l3.4,2.6C36.3,90.1,36.4,90.8,36,91.4z"/>
	</g>
	<path d="M25,63c-11,0-20,9-20,20c0,11,9,20,20,20s20-9,20-20C45,71.9,36,63,25,63z M25,101.4c-10.2,0-18.4-8.2-18.4-18.4
		S14.8,64.6,25,64.6S43.4,72.8,43.4,83S35.2,101.4,25,101.4z"/>
</g>
<g>
	<path d="M25,5C14,5,5,14,5,25c0,11,9,20,20,20s20-9,20-20C45,14,36,5,25,5z M25,43.4C14.8,43.4,6.6,35.2,6.6,25S14.8,6.6,25,6.6
		S43.4,14.8,43.4,25S35.2,43.4,25,43.4z"/>
</g>
<image style="overflow:visible;" width="2000" height="1765" xlink:href="1300797D.jpg"  transform="matrix(0.2654 0 0 0.2654 90.4928 -77.6348)">
</image>
<circle class="st0" cx="-88" cy="25" r="19.1"/>
<circle class="st1" cx="-88" cy="25" r="15.3"/>
<g>
	<path d="M36.2,131.6H13.8c-0.9,0-1.7,0.7-1.7,1.7v14.5c0,0.9,0.7,1.7,1.7,1.7h22.5c0.9,0,1.7-0.7,1.7-1.7v-14.5
		C37.9,132.3,37.2,131.6,36.2,131.6z M36.1,147.1c0,0.4-0.3,0.7-0.7,0.7H14.6c-0.4,0-0.7-0.3-0.7-0.7v-13.3c0-0.4,0.3-0.7,0.7-0.7
		h20.8c0.4,0,0.7,0.3,0.7,0.7V147.1z"/>
	<g>
		<path class="st2" d="M23.6,140.5c0.9,0.4,1.9,0.4,2.8,0C25.5,140.1,24.5,140.1,23.6,140.5z"/>
		<path d="M36.1,135v-2.4l-5.6,4.6l-2.6,2.2c0,0,0.1,0,0.1,0.1l1.4,1.1l1.2-1L36.1,135z"/>
		<path d="M26.4,140.5c-0.9,0.4-1.9,0.4-2.8,0c-0.2,0.1-0.4,0.2-0.6,0.4l-1,0.8c1.7,1.4,4.2,1.4,5.9,0l-1-0.8
			C26.7,140.7,26.6,140.6,26.4,140.5z"/>
		<path d="M22,139.4l-2.6-2.2l-5.5-4.5l0,2.3l5.6,4.6l1.2,1L22,139.4C22,139.4,22,139.4,22,139.4z"/>
		<path d="M27.9,141.7l2.6,2.2l5.6,4.6v-2.4l-5.6-4.6l-1.2-1L27.9,141.7C28,141.7,28,141.7,27.9,141.7z"/>
		<path d="M20.6,140.5l-1.2,1l-5.6,4.6l0,2.3l5.5-4.5l2.6-2.2c0,0-0.1,0-0.1-0.1L20.6,140.5z"/>
		<path d="M23.6,140.5c-0.2-0.1-0.4-0.2-0.6-0.4l-1-0.8c0,0-0.1,0-0.1,0.1l-1.4,1.1l1.4,1.1c0,0,0.1,0,0.1,0.1l1-0.8
			C23.2,140.7,23.4,140.6,23.6,140.5z"/>
		<path d="M27.9,139.4l-1,0.8c-0.2,0.1-0.4,0.3-0.6,0.4c0.2,0.1,0.4,0.2,0.6,0.4l1,0.8c0,0,0.1,0,0.1-0.1l1.4-1.1L27.9,139.4
			C28,139.4,28,139.4,27.9,139.4z"/>
	</g>
</g>
<path d="M158.9,52.2"/>
<g>
	<polygon class="st3" points="15.8,34.2 21.8,21.8 34.2,15.8 28.4,28.1 	"/>
	<line class="st3" x1="28.4" y1="28.1" x2="21.8" y2="21.8"/>
</g>
<line class="st4" x1="6.6" y1="25" x2="9.8" y2="25"/>
<line class="st4" x1="40.2" y1="25" x2="43.4" y2="25"/>
<line class="st4" x1="25" y1="40.2" x2="25" y2="43.4"/>
<line class="st4" x1="25" y1="6.6" x2="25" y2="9.8"/>
</svg>
