<?xml version="1.0" encoding="utf-8"?>
<!-- Generator: Adobe Illustrator 26.0.0, SVG Export Plug-In . SVG Version: 6.00 Build 0)  -->
<svg version="1.1" id="Layer_1" xmlns="http://www.w3.org/2000/svg" xmlns:xlink="http://www.w3.org/1999/xlink" x="0px" y="0px"
	 viewBox="0 0 50 50" style="enable-background:new 0 0 50 50;" xml:space="preserve">
<g>
	<g>
		<path d="M25,5C14,5,5,14,5,25s9,20,20,20h0.2c8,0,10.7-3.7,11.4-4.8c0.7-1.3,0.9-2.6,0.3-3.5c-0.3-0.5-0.8-0.9-1.4-1.1l0.3-0.3
			c1.1-1.1,1.1-2.9,0-4c-0.1-0.1-0.2-0.2-0.3-0.2l-3.4-2.6c-1-0.8-2.5-0.8-3.5,0l-0.7,0.6c-0.5,0.4-1.1,0.3-1.6-0.1l-6-6
			c-0.4-0.4-0.5-1.1-0.1-1.6l0.6-0.7c0.8-1,0.8-2.5,0-3.5l-2.6-3.4c-0.5-0.6-1.3-1-2.1-1.1c-0.8,0-1.6,0.2-2.2,0.8l-2.1,2.1
			c-1.2,1.2-3.1,5.2,6.8,15.1c6.4,6.4,10.3,7.7,12.5,7.7c1.4,0,2.2-0.5,2.6-0.9l0.5-0.5c0.1,0.1,0.3,0.2,0.6,0.2
			c0.4,0,0.6,0.1,0.8,0.3c0.2,0.3,0.2,1-0.3,1.9c-1.1,1.9-4.4,4-10.2,4C14.9,43.3,6.7,35.1,6.7,25S14.9,6.7,25,6.7
			S43.3,14.9,43.3,25c0,3.4-0.9,6.7-2.7,9.5c-0.3,0.4-0.2,0.9,0.2,1.2c0.4,0.3,0.9,0.2,1.2-0.2c0,0,0,0,0-0.1C44,32.3,45,28.7,45,25
			C45,14,36,5,25,5z M34.7,34c0,0-0.1,0.1-0.1,0.1l-2.1,2.1c-0.3,0.3-0.8,0.4-1.4,0.4c-1.5,0-5-0.9-11.3-7.2
			C10.3,19.9,12.7,17,13,16.7l2.1-2.1c0.2-0.2,0.5-0.3,0.8-0.3h0.1c0.3,0,0.7,0.2,0.9,0.5l2.6,3.4c0.3,0.4,0.3,1,0,1.5l-0.6,0.7
			C18,21.4,18.1,23,19.2,24l6,6c1,1,2.6,1.1,3.8,0.2l0.7-0.6c0.4-0.3,1-0.3,1.5,0l3.4,2.6C35,32.7,35.1,33.4,34.7,34z"/>
	</g>
</g>
</svg>
