<?xml version="1.0" encoding="utf-8"?>
<!-- Generator: Adobe Illustrator 26.0.0, SVG Export Plug-In . SVG Version: 6.00 Build 0)  -->
<svg version="1.1" id="Capa_1" xmlns="http://www.w3.org/2000/svg" xmlns:xlink="http://www.w3.org/1999/xlink" x="0px" y="0px"
	 viewBox="0 0 50 50" style="enable-background:new 0 0 50 50;" xml:space="preserve">
<style type="text/css">
	.st0{fill:none;stroke:#000000;stroke-width:1.5;stroke-miterlimit:10;}
	.st1{fill:none;stroke:#000000;stroke-width:1.5;stroke-linecap:round;stroke-miterlimit:10;}
</style>
<g>
	<g>
		<path d="M44.4,23.6c-0.9-0.9-1.8-1.9-2.7-2.8c-0.7-0.6-0.9-1.2-0.7-2.2c0.3-1.4,0.4-2.8,0.6-4.3c0.1-1-0.3-1.5-1.4-1.7
			c-0.8-0.2-1.6-0.4-2.3-0.4c-2.3,0-3.8-1.1-4.5-3.3c-0.3-0.7-0.7-1.4-1.1-2.1c-0.5-1-1.3-1.3-2.4-0.7c-1.2,0.6-2.5,1.2-3.8,1.9
			c-0.7,0.4-1.3,0.4-2,0c-1.2-0.7-2.5-1.2-3.8-1.9c-1.1-0.6-1.9-0.3-2.4,0.8c-0.2,0.4-0.5,0.7-0.6,1.1c-0.9,2.7-2.7,4-5.7,4.3
			c-3.4,0.3-3.3,0.6-2.8,3.9c0,0.1,0,0.1,0,0.2c0.8,2.4,0.2,4.1-1.7,5.9c-2.8,2.6-2.8,2.8,0,5.4c1.8,1.6,2.3,3.2,1.8,5.6
			c-0.8,3.8-0.7,4.1,3.1,4.5c2.6,0.3,3.9,1.4,5,3.7c1.5,3.3,1.8,3.4,5,1.6c2.2-1.2,4-1.3,6.2,0c3.3,1.9,3.5,1.8,5.1-1.7
			c1-2.2,2.4-3.3,4.9-3.5c3.9-0.4,3.9-0.6,3.1-4.6c-0.4-2.1-0.2-3.8,1.6-5.2c0.6-0.5,1.1-1.1,1.7-1.7C45.4,25.4,45.3,24.5,44.4,23.6
			z M42.9,26c-3.2,2.2-4,5.2-2.8,8.8c0.3,1,0,1.5-1,1.5c-4-0.1-6.5,1.8-7.7,5.6c-0.3,0.9-0.8,1.2-1.6,0.5c-0.1-0.1-0.2-0.1-0.3-0.1
			c-3-2.2-6-2.2-9,0c-0.9,0.7-1.6,0.5-1.9-0.6c0-0.1-0.1-0.1-0.1-0.1c-1.1-3.5-3.5-5.2-7.2-5.2c-1.3,0-1.6-0.6-1.2-1.8
			c1.1-3.5,0.3-6.3-2.8-8.5c-1-0.7-1.1-1.4,0-2.2c3.1-2.2,4-5.1,2.8-8.6c-0.5-1.3,0.1-1.7,1.2-1.7c3.8,0.1,6.2-1.8,7.3-5.3
			c0.3-1.1,1-1.4,1.9-0.7c0.1,0,0.1,0.1,0.1,0.1c3,2.2,5.9,2.2,8.9,0c1-0.7,1.7-0.6,2.1,0.7c1.2,3.6,3.6,5.3,7.4,5.3
			c0.6,0,1.6-0.1,1.3,1.2c0,0.1-0.1,0.2-0.1,0.3c-1.1,3.6-0.4,6.6,2.8,8.8C43.8,24.6,43.9,25.3,42.9,26z"/>
	</g>
	<circle class="st0" cx="20.4" cy="19.7" r="2.8"/>
	<circle class="st0" cx="30" cy="29.3" r="2.8"/>
	<line class="st1" x1="17.6" y1="32" x2="32.8" y2="16.9"/>
</g>
</svg>
