<svg id="Layer_1" data-name="Layer 1" xmlns="http://www.w3.org/2000/svg" viewBox="0 0 50 50"><defs><style>.cls-1{fill:none;}</style></defs><path d="M25,5A20,20,0,1,0,45,25,20,20,0,0,0,25,5Zm0,38.4A18.4,18.4,0,1,1,43.4,25,18.4,18.4,0,0,1,25,43.4Z"/><path d="M36.24,16.09H13.76a1.66,1.66,0,0,0-1.66,1.66v14.5a1.66,1.66,0,0,0,1.66,1.66H36.24a1.66,1.66,0,0,0,1.66-1.66V17.75A1.66,1.66,0,0,0,36.24,16.09Zm-.11,15.57a.73.73,0,0,1-.73.72H14.6a.73.73,0,0,1-.73-.72V18.34a.73.73,0,0,1,.73-.72H35.4a.73.73,0,0,1,.73.72Z"/><path class="cls-1" d="M23.59,25.05a3.07,3.07,0,0,0,2.77,0A3.07,3.07,0,0,0,23.59,25.05Z"/><path d="M36.13,19.49V17.12l-5.58,4.59-2.63,2.16.09.06,1.36,1.12,1.18-1Z"/><path d="M26.36,25.05a3.07,3.07,0,0,1-2.77,0,2.8,2.8,0,0,0-.56.36l-1,.82a4.79,4.79,0,0,0,5.89,0l-1-.82A2.8,2.8,0,0,0,26.36,25.05Z"/><path d="M22,23.87,19.4,21.71l-5.53-4.55,0,2.33,5.58,4.59,1.18,1,1.36-1.12Z"/><path d="M27.92,26.23l2.63,2.16L36.13,33V30.6L30.55,26l-1.18-1L28,26.16Z"/><path d="M20.58,25.05,19.4,26,13.82,30.6l0,2.33,5.53-4.54L22,26.23l-.09-.07Z"/><path d="M23.59,25.05a3.33,3.33,0,0,1-.56-.36l-1-.82-.09.06-1.36,1.12,1.36,1.11.09.07,1-.82A2.8,2.8,0,0,1,23.59,25.05Z"/><path d="M27.92,23.87l-1,.82a3.33,3.33,0,0,1-.56.36,2.8,2.8,0,0,1,.56.36l1,.82.09-.07,1.36-1.11L28,23.93Z"/></svg>