<svg id="Layer_1" data-name="Layer 1" xmlns="http://www.w3.org/2000/svg" viewBox="0 0 50 50"><path d="M36.78,35.05l.3-.3a2.84,2.84,0,0,0,0-4c-.1-.1-.2-.2-.3-.2L33.38,28a2.85,2.85,0,0,0-3.5,0l-.7.6a1.22,1.22,0,0,1-1.6-.1l-6-6a1.22,1.22,0,0,1-.1-1.6l.6-.7a2.85,2.85,0,0,0,0-3.5l-2.6-3.4a3.33,3.33,0,0,0-2.1-1.1,3,3,0,0,0-2.2.8l-2.1,2.1c-1.2,1.2-3.1,5.2,6.8,15.1,6.4,6.4,10.3,7.7,12.5,7.7A3.55,3.55,0,0,0,35,37l.5-.5m.5-3-.1.1-2.1,2.1a2,2,0,0,1-1.4.4c-1.5,0-5-.9-11.3-7.2-9.5-9.5-7.1-12.4-6.8-12.7l2.1-2.1a1.14,1.14,0,0,1,.8-.3h.1a1.19,1.19,0,0,1,.9.5l2.6,3.4a1.36,1.36,0,0,1,0,1.5l-.6.7a2.55,2.55,0,0,0,.3,3.6l6,6a2.89,2.89,0,0,0,3.8.2l.7-.6a1.36,1.36,0,0,1,1.5,0l3.4,2.6A1.5,1.5,0,0,1,36,33.45Z"/><path d="M25,5A20,20,0,1,0,45,25,20,20,0,0,0,25,5Zm0,38.4A18.4,18.4,0,1,1,43.4,25,18.4,18.4,0,0,1,25,43.4Z"/></svg>